<svg xmlns="http://www.w3.org/2000/svg" fill="none" viewBox="0 0 63 40" height="40" width="63">
<path fill="#ffffff" d="M61.678 18.4475V19.7248C61.678 19.7248 61.7425 20.5883 60.7757 20.6391C60.6898 20.6536 59.7303 20.6246 59.766 19.6885V0.879055C59.766 0.879055 59.6945 0.000992678 58.828 0.000992678C58.828 0.000992678 58.0331 -0.0715744 57.4173 1.02419C56.8014 2.11995 56.5866 2.96173 55.7559 2.96173C55.7559 2.96173 54.7677 3.07784 54.782 2.19252V1.24189L51.6741 2.26509V5.88619C51.6741 6.78601 51.0081 11.2489 49.8337 11.2634C49.7549 11.2779 48.645 11.4303 48.6091 10.3128C48.6091 10.3128 48.6091 6.48123 48.6091 6.10388C48.6378 5.53786 48.201 3.83979 46.8046 4.02121L45.5442 4.2752V13.3896C45.5442 13.6727 45.4439 15.0151 43.9545 15.0731C43.8184 15.095 42.3647 15.0369 42.3647 13.6073V7.67856C42.3647 7.67856 42.2931 6.61911 43.3386 6.54654L43.3744 5.00812C43.3744 5.00812 40.195 5.74105 38.7126 8.44777C38.5336 8.64376 38.1684 8.81066 37.9178 8.81066C37.7674 8.81066 37.0512 8.76708 37.0155 8.04145C37.0155 7.86728 37.0155 7.05451 37.0155 7.05451L31.7807 8.81066C31.7807 8.81066 29.7255 9.47103 29.7255 11.5899C29.7255 11.5899 29.7255 13.0558 30.6278 13.7525L34.2728 16.5317C34.2728 16.5317 34.8958 16.9817 34.595 17.7364C34.552 17.867 34.1295 18.7378 33.2559 18.7596C33.084 18.7814 32.5326 18.7596 32.2104 17.9178C32.2104 17.9178 31.9239 16.822 30.9858 17.1486C30.9858 17.1486 29.2314 17.7727 29.1096 17.809C28.9879 17.8452 27.9567 18.0267 27.9567 16.7857V12.6857C27.9567 12.381 27.5843 10.6466 26.1521 10.7119C26.1521 10.7119 25.3215 10.7845 24.5982 11.1183V12.9107C24.5982 12.9107 25.5721 12.7655 25.5721 14.0428V20.2254C25.5721 20.2254 25.615 21.7711 24.0182 21.8002C22.6862 21.7856 22.4642 20.494 22.4642 20.3343C22.4498 19.4562 22.5 0.603299 22.5 0.603299L19.3134 1.86596L19.3491 15.3707C19.3491 15.3707 19.1558 19.761 17.9384 21.4445C17.5803 21.9307 16.3487 21.9307 16.2413 20.8568V13.9048L13.1334 14.8918V17.7073C13.1334 18.1791 12.7037 23.774 11.114 23.6869C10.9134 23.6942 10.4838 23.4692 10.4838 22.5113L10.5052 15.6973L7.46179 16.793C7.46179 16.793 7.43315 20.5375 7.42597 20.7479C7.33291 21.9526 7.49762 27.3733 3.96006 27.3733C3.96006 27.3733 3.09357 27.4095 3.09357 26.3501V11.1981C3.09357 11.1981 3.19383 9.4855 4.5043 8.89046C4.5043 8.89046 5.84341 8.40426 6.12985 8.3027C6.41629 8.20107 7.5048 8.3027 7.5048 9.50725V13.3534L11.3359 12.1487V7.72214C11.3359 6.21999 9.86793 4.84847 8.73647 5.1968C7.60502 5.54512 2.86442 7.01098 2.67107 7.09805C2.47772 7.18514 0 8.15756 0 10.9078L0.0358052 28.7666C0.0358052 28.7666 0.143221 30.559 1.98361 30.5227C1.98361 30.5227 2.52785 30.5227 3.39434 30.0437C3.39434 30.0437 5.52832 28.8609 5.67155 28.8029C5.81477 28.7376 6.97486 28.3602 7.01066 29.9712V40L10.5124 38.8679V29.9785C10.5124 29.3762 10.9421 26.3864 12.4602 25.1455C12.5533 25.0657 13.2838 24.5867 13.9425 25.472C14.5942 26.3646 15.1671 26.4952 15.1671 26.4952C15.1671 26.4952 15.8761 26.8145 16.5062 25.726C16.542 25.6535 17.6448 23.7957 17.6949 23.7159C17.745 23.6288 17.9097 23.3821 18.3824 23.4257C18.3824 23.4257 19.5353 23.3531 19.3563 25.0004C19.3563 25.0004 24.7271 23.3458 25.1711 23.0991C25.2427 23.07 27.2908 22.2356 28.5296 20.3198C28.5296 20.3198 28.8948 19.7683 29.3603 19.8046C29.4462 19.8046 30.5848 19.8771 30.2626 21.4155C30.2626 21.4155 35.4686 19.8046 35.7551 19.6594C36.3781 19.3982 37.9965 18.7233 37.9607 16.8076C37.9822 16.2415 37.8246 15.2473 37.0226 14.5362C36.9796 14.4927 33.442 11.8512 33.4134 11.8294C33.1055 11.5609 32.948 10.9659 33.4492 10.3273C33.4492 10.3273 33.8431 9.73948 34.4232 9.77578C34.4232 9.77578 34.8671 9.75403 35.5403 10.6538C35.6334 10.7482 36.1346 11.423 36.4784 11.4956C36.4784 11.4956 36.7719 11.5899 37.13 11.2417C38.0108 10.4652 38.4691 10.4362 38.4691 10.4362C38.4691 10.4362 39.7366 10.0733 39.7366 11.5319V14.6088C39.7366 15.2836 40.6103 17.3445 42.5939 17.2429C42.5939 17.2429 43.2813 17.1704 43.933 16.9889L46.067 16.2923C46.067 16.2923 48.7452 15.4795 49.6761 13.7307C49.6761 13.7307 50.1202 12.8526 50.7575 12.8526C50.7575 12.8526 51.8818 12.7075 51.7672 14.4273L54.8034 13.4041V5.96601C54.8034 5.96601 54.7175 5.08795 55.7416 5.08795C56.7513 5.08795 56.7154 5.89344 56.7154 5.89344V21.2632C56.7154 21.6985 57.1595 23.041 58.6275 23.0193C58.6275 23.0193 62.7451 22.983 62.7451 19.4345V18.0774L61.678 18.4475Z"></path>
<path fill="#ffffff" d="M14.6444 9.52304C15.7759 9.52304 16.6854 8.59421 16.6854 7.45488C16.6854 6.30832 15.7687 5.38672 14.6444 5.38672C13.513 5.38672 12.6035 6.31557 12.6035 7.45488C12.6035 8.59421 13.5202 9.52304 14.6444 9.52304Z"></path>
<path fill="#ffffff" d="M62.1588 1.17441C62.1588 1.77672 61.6933 2.16133 61.1634 2.16133C60.6407 2.16133 60.168 1.77672 60.168 1.17441C60.168 0.572105 60.6335 0.1875 61.1634 0.1875C61.6933 0.1875 62.1588 0.579362 62.1588 1.17441ZM61.901 1.16719C61.901 0.717276 61.5715 0.390724 61.1634 0.390724C60.7552 0.390724 60.4258 0.717276 60.4258 1.16719C60.4258 1.6171 60.7481 1.94366 61.1634 1.94366C61.5715 1.94366 61.901 1.62437 61.901 1.16719Z" clip-rule="evenodd" fill-rule="evenodd"></path>
<path fill="#ffffff" d="M61.2601 1.27914H61.0729V1.76786H60.7773V0.625H61.3389C61.7133 0.625 61.9202 0.715226 61.9202 0.963345C61.9202 1.17387 61.7527 1.25658 61.5556 1.27162L61.9202 1.76786H61.5951L61.2601 1.27914ZM61.3193 0.797963H61.073V1.09871H61.3292C61.5459 1.09871 61.6247 1.04608 61.6247 0.940823C61.6247 0.835555 61.536 0.797963 61.3193 0.797963Z" clip-rule="evenodd" fill-rule="evenodd"></path>
</svg>
